[Header]
FileType HTR
DataType HTRS
FileVersion 1
NumSegments 64
NumFrames 4
DataFrameRate 30
EulerRotationOrder ZYX
CalibrationUnits mm
RotationUnits Degrees
GlobalAxisofGravity Y
BoneLengthAxis Y
ScaleFactor 1.0
[SegmentNames&Hierarchy]
Hips	GLOBAL
Spine	Hips
Spine1	Spine
Spine2	Spine1
Neck	Spine2
Head	Neck
LeftEye	Head
RightEye	Head
LeftShoulder	Spine2
LeftArm	LeftShoulder
LeftForeArm	LeftArm
LeftHand	LeftForeArm
LeftHandThumb1	LeftHand
LeftHandThumb2	LeftHandThumb1
LeftHandThumb3	LeftHandThumb2
LeftHandThumb4	LeftHandThumb3
LeftHandIndex1	LeftHand
LeftHandIndex2	LeftHandIndex1
LeftHandIndex3	LeftHandIndex2
LeftHandIndex4	LeftHandIndex3
LeftHandMiddle1	LeftHand
LeftHandMiddle2	LeftHandMiddle1
LeftHandMiddle3	LeftHandMiddle2
LeftHandMiddle4	LeftHandMiddle3
LeftHandRing1	LeftHand
LeftHandRing2	LeftHandRing1
LeftHandRing3	LeftHandRing2
LeftHandRing4	LeftHandRing3
LeftHandPinky1	LeftHand
LeftHandPinky2	LeftHandPinky1
LeftHandPinky3	LeftHandPinky2
LeftHandPinky4	LeftHandPinky3
RightShoulder	Spine2
RightArm	RightShoulder
RightForeArm	RightArm
RightHand	RightForeArm
RightHandPinky1	RightHand
RightHandPinky2	RightHandPinky1
RightHandPinky3	RightHandPinky2
RightHandPinky4	RightHandPinky3
RightHandRing1	RightHand
RightHandRing2	RightHandRing1
RightHandRing3	RightHandRing2
RightHandRing4	RightHandRing3
RightHandMiddle1	RightHand
RightHandMiddle2	RightHandMiddle1
RightHandMiddle3	RightHandMiddle2
RightHandMiddle4	RightHandMiddle3
RightHandIndex1	RightHand
RightHandIndex2	RightHandIndex1
RightHandIndex3	RightHandIndex2
RightHandIndex4	RightHandIndex3
RightHandThumb1	RightHand
RightHandThumb2	RightHandThumb1
RightHandThumb3	RightHandThumb2
RightHandThumb4	RightHandThumb3
LeftUpLeg	Hips
LeftLeg	LeftUpLeg
LeftFoot	LeftLeg
LeftToeBase	LeftFoot
RightUpLeg	Hips
RightLeg	RightUpLeg
RightFoot	RightLeg
RightToeBase	RightFoot
[BasePosition]
Hips	0	0	0	0	0	0	1
Spine	0	0	0	0	0	0	1
Spine1	0	0	0	0	0	0	1
Spine2	0	0	0	0	0	0	1
Neck	0	0	0	0	0	0	1
Head	0	0	0	0	0	0	1
LeftEye	0	0	0	0	0	0	1
RightEye	0	0	0	0	0	0	1
LeftShoulder	0	0	0	0	0	0	1
LeftArm	0	0	0	0	0	0	1
LeftForeArm	0	0	0	0	0	0	1
LeftHand	0	0	0	0	0	0	1
LeftHandThumb1	0	0	0	0	0	0	1
LeftHandThumb2	0	0	0	0	0	0	1
LeftHandThumb3	0	0	0	0	0	0	1
LeftHandThumb4	0	0	0	0	0	0	1
LeftHandIndex1	0	0	0	0	0	0	1
LeftHandIndex2	0	0	0	0	0	0	1
LeftHandIndex3	0	0	0	0	0	0	1
LeftHandIndex4	0	0	0	0	0	0	1
LeftHandMiddle1	0	0	0	0	0	0	1
LeftHandMiddle2	0	0	0	0	0	0	1
LeftHandMiddle3	0	0	0	0	0	0	1
LeftHandMiddle4	0	0	0	0	0	0	1
LeftHandRing1	0	0	0	0	0	0	1
LeftHandRing2	0	0	0	0	0	0	1
LeftHandRing3	0	0	0	0	0	0	1
LeftHandRing4	0	0	0	0	0	0	1
LeftHandPinky1	0	0	0	0	0	0	1
LeftHandPinky2	0	0	0	0	0	0	1
LeftHandPinky3	0	0	0	0	0	0	1
LeftHandPinky4	0	0	0	0	0	0	1
RightShoulder	0	0	0	0	0	0	1
RightArm	0	0	0	0	0	0	1
RightForeArm	0	0	0	0	0	0	1
RightHand	0	0	0	0	0	0	1
RightHandPinky1	0	0	0	0	0	0	1
RightHandPinky2	0	0	0	0	0	0	1
RightHandPinky3	0	0	0	0	0	0	1
RightHandPinky4	0	0	0	0	0	0	1
RightHandRing1	0	0	0	0	0	0	1
RightHandRing2	0	0	0	0	0	0	1
RightHandRing3	0	0	0	0	0	0	1
RightHandRing4	0	0	0	0	0	0	1
RightHandMiddle1	0	0	0	0	0	0	1
RightHandMiddle2	0	0	0	0	0	0	1
RightHandMiddle3	0	0	0	0	0	0	1
RightHandMiddle4	0	0	0	0	0	0	1
RightHandIndex1	0	0	0	0	0	0	1
RightHandIndex2	0	0	0	0	0	0	1
RightHandIndex3	0	0	0	0	0	0	1
RightHandIndex4	0	0	0	0	0	0	1
RightHandThumb1	0	0	0	0	0	0	1
RightHandThumb2	0	0	0	0	0	0	1
RightHandThumb3	0	0	0	0	0	0	1
RightHandThumb4	0	0	0	0	0	0	1
LeftUpLeg	0	0	0	0	0	0	1
LeftLeg	0	0	0	0	0	0	1
LeftFoot	0	0	0	0	0	0	1
LeftToeBase	0	0	0	0	0	0	1
RightUpLeg	0	0	0	0	0	0	1
RightLeg	0	0	0	0	0	0	1
RightFoot	0	0	0	0	0	0	1
RightToeBase	0	0	0	0	0	0	1
[Hips]
67	-112.2855453	707.3117065	-1591.270996	-296.5259705	2.113413334	0.006312121637	1.0
68	-104.6517181	722.4286499	-1600.149414	-296.1313477	0.7126053572	-0.7966239452	1.0
69	-94.95440674	748.5059814	-1597.998779	-296.3983154	-0.01020064671	-1.924587011	1.0
70	-84.01847076	779.2779541	-1585.8479	-298.7177124	-0.5605148673	-2.948966742	1.0
[Spine]
67	0	101.8159943	1.315000057	10.51558208	-3.518560648	-3.344008446	1.0
68	0	101.8159943	1.315000057	10.56041431	-2.755300283	-3.110134125	1.0
69	0	101.8159943	1.315000057	10.26624107	-2.207515001	-2.700045586	1.0
70	0	101.8159943	1.315000057	9.889448166	-1.959683657	-2.33136034	1.0
[Spine1]
67	0	100.8349991	-10.00800037	21.32964897	-6.814745903	-7.704704285	1.0
68	0	100.8349991	-10.00800037	21.35897064	-5.501216412	-7.208461761	1.0
69	0	100.8349991	-10.00800037	20.72976494	-4.737571239	-6.467556477	1.0
70	0	100.8349991	-10.00800037	19.95842361	-4.486561298	-5.878836155	1.0
[Spine2]
67	0	91	-13.73399925	21.32965469	-6.814741611	-7.704705238	1.0
68	0	91	-13.73399925	21.35897827	-5.501214504	-7.208463669	1.0
69	0	91	-13.73399925	20.72977257	-4.737573624	-6.467559814	1.0
70	0	91	-13.73399925	19.95842552	-4.486563206	-5.87883997	1.0
[Neck]
67	0	166.7169952	-25.16200066	8.02782917	3.404553413	-4.277430058	1.0
68	0	166.7169952	-25.16200066	5.453628063	2.776660681	-4.286954403	1.0
69	0	166.7169952	-25.16200066	4.113698959	2.613188982	-3.908714294	1.0
70	0	166.7169952	-25.16200066	3.46768856	2.722665071	-3.090296984	1.0
[Head]
67	0	96.17900085	16.84999847	-40.18235397	7.1112957	-0.4795548022	1.0
68	0	96.17900085	16.84999847	-48.17380524	5.838654518	1.182338119	1.0
69	0	96.17900085	16.84999847	-51.68396759	6.227656841	1.219210625	1.0
70	0	96.17900085	16.84999847	-51.46664047	7.392962933	0.1825493127	1.0
[LeftEye]
67	30.6760006	64.09500122	92.83599854	0	0	0	1.0
68	30.6760006	64.09500122	92.83599854	0	0	0	1.0
69	30.6760006	64.09500122	92.83599854	0	0	0	1.0
70	30.6760006	64.09500122	92.83599854	0	0	0	1.0
[RightEye]
67	-30.6760006	64.09500122	92.83499908	0	0	0	1.0
68	-30.6760006	64.09500122	92.83499908	0	0	0	1.0
69	-30.6760006	64.09500122	92.83499908	0	0	0	1.0
70	-30.6760006	64.09500122	92.83499908	0	0	0	1.0
[LeftShoulder]
67	45.70400238	109.4599991	-26.28000069	-0.6544262767	-12.01762199	4.301228523	1.0
68	45.70400238	109.4599991	-26.28000069	-0.335508287	-10.91292667	2.786921501	1.0
69	45.70400238	109.4599991	-26.28000069	-0.1139225811	-11.21585083	1.568557739	1.0
70	45.70400238	109.4599991	-26.28000069	0.05382450297	-13.64852333	0.7039992809	1.0
[LeftArm]
67	105.923996	-5.24600029	-22.32099915	-61.78539658	-20.34021759	-1.763845444	1.0
68	105.923996	-5.24600029	-22.32099915	-60.47174072	-24.3657856	0.6169832945	1.0
69	105.923996	-5.24600029	-22.32099915	-51.7401619	-27.72966194	-3.72100997	1.0
70	105.923996	-5.24600029	-22.32099915	-37.4728775	-28.61732483	-13.04117298	1.0
[LeftForeArm]
67	278.414978	-0.0009999999311	0	-543.4078369	-94.59320068	542.0504761	1.0
68	278.414978	-0.0009999999311	0	-542.362854	-94.94522095	541.2127075	1.0
69	278.414978	-0.0009999999311	0	-541.1850586	-96.92016602	540.5162354	1.0
70	278.414978	-0.0009999999311	0	-540.9926147	-99.36697388	540.9384766	1.0
[LeftHand]
67	283.2879944	0	0	-6.537479401	-32.88646317	41.45978928	1.0
68	283.2879944	0	0	-4.889922619	-36.10848999	39.95582581	1.0
69	283.2879944	0	0	-2.772279263	-36.54296875	34.57523727	1.0
70	283.2879944	0	0	-0.4417307973	-32.68442154	27.22084999	1.0
[LeftHandThumb1]
67	24.6609993	-15.75	26.8239994	-2.20443058	-4.187050819	15.91211891	1.0
68	24.6609993	-15.75	26.8239994	-2.076087713	-4.296320438	16.05615044	1.0
69	24.6609993	-15.75	26.8239994	-1.950725436	-4.411971092	16.20137596	1.0
70	24.6609993	-15.75	26.8239994	-1.82451427	-4.528752327	16.34777641	1.0
[LeftHandThumb2]
67	32.29800034	-18.64699936	18.64699936	4.878605366	6.008364677	-4.787041187	1.0
68	32.29800034	-18.64699936	18.64699936	4.942519188	6.004328728	-4.975917339	1.0
69	32.29800034	-18.64699936	18.64699936	5.007096291	5.992442131	-5.17188549	1.0
70	32.29800034	-18.64699936	18.64699936	5.072363377	5.98069334	-5.369562626	1.0
[LeftHandThumb3]
67	26.52600098	-15.31499958	15.31499958	3.601811159e-06	-8.438974328e-05	-6.943767221e-05	1.0
68	26.52600098	-15.31499958	15.31499958	3.601811159e-06	-8.438974328e-05	-6.943767221e-05	1.0
69	26.52600098	-15.31499958	15.31499958	3.601811159e-06	-8.438974328e-05	-6.943767221e-05	1.0
70	26.52600098	-15.31499958	15.31499958	3.601811159e-06	-8.438974328e-05	-6.943767221e-05	1.0
[LeftHandThumb4]
67	19.54599953	-11.28499985	11.28499985	0	0	0	1.0
68	19.54599953	-11.28499985	11.28499985	0	0	0	1.0
69	19.54599953	-11.28499985	11.28499985	0	0	0	1.0
70	19.54599953	-11.28499985	11.28499985	0	0	0	1.0
[LeftHandIndex1]
67	91.09299469	-5.170999527	22.60099792	0.09453719109	-0.7769787312	-8.676332474	1.0
68	91.09299469	-5.170999527	22.60099792	0.09420055896	-0.7779035568	-8.6808815	1.0
69	91.09299469	-5.170999527	22.60099792	0.09419362992	-0.7778936625	-8.680882454	1.0
70	91.09299469	-5.170999527	22.60099792	0.09420609474	-0.7778804302	-8.68087101	1.0
[LeftHandIndex2]
67	36.76399994	0	0	-0.154639259	0.7456075549	-16.86378479	1.0
68	36.76399994	0	0	-0.1557158679	0.7435780168	-16.87995529	1.0
69	36.76399994	0	0	-0.1557135582	0.7435794473	-16.87995529	1.0
70	36.76399994	0	0	-0.1557239294	0.7435795069	-16.87995529	1.0
[LeftHandIndex3]
67	28.83100128	0	0	-1.432096042e-06	3.907105395e-07	1.552835329e-06	1.0
68	28.83100128	0	0	-1.432096042e-06	3.907105395e-07	1.552835329e-06	1.0
69	28.83100128	0	0	-1.432096042e-06	3.907105395e-07	1.552835329e-06	1.0
70	28.83100128	0	0	-1.432096042e-06	3.907105395e-07	1.552835329e-06	1.0
[LeftHandIndex4]
67	23.92700005	0	0	0	0	0	1.0
68	23.92700005	0	0	0	0	0	1.0
69	23.92700005	0	0	0	0	0	1.0
70	23.92700005	0	0	0	0	0	1.0
[LeftHandMiddle1]
67	95.33399963	0	0	-0.5574187636	0.1750974655	-16.00888824	1.0
68	95.33399963	0	0	-0.5579313636	0.1743348837	-16.01578331	1.0
69	95.33399963	0	0	-0.5579441786	0.1743383259	-16.01579285	1.0
70	95.33399963	0	0	-0.5579465032	0.1743516773	-16.01578903	1.0
[LeftHandMiddle2]
67	36.98199844	0	0	-0.2010328472	-0.7857454419	-14.23324299	1.0
68	36.98199844	0	0	-0.2017958313	-0.7876901031	-14.25036621	1.0
69	36.98199844	0	0	-0.201793313	-0.7876916528	-14.25036335	1.0
70	36.98199844	0	0	-0.2017855346	-0.7876957655	-14.2503624	1.0
[LeftHandMiddle3]
67	29.50900078	0	0	0	-3.180554719e-15	-7.951386796e-16	1.0
68	29.50900078	0	0	0	-3.180554719e-15	-7.951386796e-16	1.0
69	29.50900078	0	0	0	-3.180554719e-15	-7.951386796e-16	1.0
70	29.50900078	0	0	0	-3.180554719e-15	-7.951386796e-16	1.0
[LeftHandMiddle4]
67	28.3390007	0	0	0	0	0	1.0
68	28.3390007	0	0	0	0	0	1.0
69	28.3390007	0	0	0	0	0	1.0
70	28.3390007	0	0	0	0	0	1.0
[LeftHandRing1]
67	91.04499817	-0.4390000105	-18.65100098	-2.868099928	5.926729679	-26.88650131	1.0
68	91.04499817	-0.4390000105	-18.65100098	-2.868413687	5.925534725	-26.89398956	1.0
69	91.04499817	-0.4390000105	-18.65100098	-2.868415356	5.925534725	-26.89398956	1.0
70	91.04499817	-0.4390000105	-18.65100098	-2.868406296	5.925544262	-26.89398575	1.0
[LeftHandRing2]
67	31.54000092	0	0	0.9482186437	-2.136475325	-23.13689041	1.0
68	31.54000092	0	0	0.9494919181	-2.137224197	-23.1540699	1.0
69	31.54000092	0	0	0.9494876266	-2.137221336	-23.1540699	1.0
70	31.54000092	0	0	0.9494866729	-2.137225866	-23.15406799	1.0
[LeftHandRing3]
67	29.37700081	0	0	1.590277359e-15	3.180554719e-15	-7.951386796e-16	1.0
68	29.37700081	0	0	1.590277359e-15	3.180554719e-15	-7.951386796e-16	1.0
69	29.37700081	0	0	1.590277359e-15	3.180554719e-15	-7.951386796e-16	1.0
70	29.37700081	0	0	1.590277359e-15	3.180554719e-15	-7.951386796e-16	1.0
[LeftHandRing4]
67	26.47500038	0	0	0	0	0	1.0
68	26.47500038	0	0	0	0	0	1.0
69	26.47500038	0	0	0	0	0	1.0
70	26.47500038	0	0	0	0	0	1.0
[LeftHandPinky1]
67	80.77799988	-4.887000084	-38.06099701	-3.709215164	11.62802505	-25.3402462	1.0
68	80.77799988	-4.887000084	-38.06099701	-3.706840038	11.62720966	-25.33530235	1.0
69	80.77799988	-4.887000084	-38.06099701	-3.704304457	11.62869167	-25.32269859	1.0
70	80.77799988	-4.887000084	-38.06099701	-3.701740265	11.63019085	-25.30997849	1.0
[LeftHandPinky2]
67	36	0	0	3.932433844	-4.798635006	-38.67597961	1.0
68	36	0	0	3.938773155	-4.795412064	-38.74424362	1.0
69	36	0	0	3.943713665	-4.792661667	-38.8032608	1.0
70	36	0	0	3.948683262	-4.789882183	-38.86280441	1.0
[LeftHandPinky3]
67	21.14200211	0	0	3.226109357e-06	2.925280342e-06	-5.739977951e-06	1.0
68	21.14200211	0	0	3.226109357e-06	2.925280342e-06	-5.739977951e-06	1.0
69	21.14200211	0	0	3.226109357e-06	2.925280342e-06	-5.739977951e-06	1.0
70	21.14200211	0	0	3.226109357e-06	2.925280342e-06	-5.739977951e-06	1.0
[LeftHandPinky4]
67	19.75699997	0	0	0	0	0	1.0
68	19.75699997	0	0	0	0	0	1.0
69	19.75699997	0	0	0	0	0	1.0
70	19.75699997	0	0	0	0	0	1.0
[RightShoulder]
67	-45.70000076	109.4620056	-26.28000069	-0.1361340284	8.294961929	-2.124853849	1.0
68	-45.70000076	109.4620056	-26.28000069	0.4041635692	11.76052666	1.0704633	1.0
69	-45.70000076	109.4620056	-26.28000069	1.287561536	15.34571457	4.881429672	1.0
70	-45.70000076	109.4620056	-26.28000069	2.131871462	17.08808327	8.270070076	1.0
[RightArm]
67	-105.9280014	-5.248000145	-22.32099915	-51.86325836	-2.950603485	29.70087624	1.0
68	-105.9280014	-5.248000145	-22.32099915	-45.54341507	-2.358890295	32.97242737	1.0
69	-105.9280014	-5.248000145	-22.32099915	-38.5568924	-1.718089461	37.26642227	1.0
70	-105.9280014	-5.248000145	-22.32099915	-33.09925842	0.3990031779	41.10322952	1.0
[RightForeArm]
67	-278.414978	0	0	-3.722337246	112.9851913	-2.150514126	1.0
68	-278.414978	0	0	-3.062820435	113.702034	-1.689987183	1.0
69	-278.414978	0	0	-3.731645823	103.8679047	-2.886828423	1.0
70	-278.414978	0	0	9.461507797	85.53643799	9.693234444	1.0
[RightHand]
67	-283.2879944	0	0.0009999999311	-6.571683884	9.73339653	-33.70852661	1.0
68	-283.2879944	0	0.0009999999311	-5.500301361	14.76650238	-33.34758377	1.0
69	-283.2879944	0	0.0009999999311	-6.732389927	19.19161606	-28.38625526	1.0
70	-283.2879944	0	0.0009999999311	-8.409515381	22.49461365	-22.82456207	1.0
[RightHandPinky1]
67	-80.76699829	-4.885000229	-38.06000137	-1.887574077	-18.80550003	22.69191933	1.0
68	-80.76699829	-4.885000229	-38.06000137	-2.15309453	-19.88519096	22.87862778	1.0
69	-80.76699829	-4.885000229	-38.06000137	-2.406262398	-20.89589882	23.05851364	1.0
70	-80.76699829	-4.885000229	-38.06000137	-2.638132334	-21.80637932	23.22440147	1.0
[RightHandPinky2]
67	-36	0	0.0009999999311	8.609900475	5.834663391	61.21918488	1.0
68	-36	0	0.0009999999311	8.615847588	5.830385685	61.27768326	1.0
69	-36	0	0.0009999999311	8.621850014	5.826060295	61.33672714	1.0
70	-36	0	0.0009999999311	8.627896309	5.821700573	61.39626694	1.0
[RightHandPinky3]
67	-21.14200211	0	0	-1.590277359e-15	0	-7.951386796e-16	1.0
68	-21.14200211	0	0	-1.590277359e-15	0	-7.951386796e-16	1.0
69	-21.14200211	0	0	-1.590277359e-15	0	-7.951386796e-16	1.0
70	-21.14200211	0	0	-1.590277359e-15	0	-7.951386796e-16	1.0
[RightHandPinky4]
67	-19.75699997	0	0	0	0	0	1.0
68	-19.75699997	0	0	0	0	0	1.0
69	-19.75699997	0	0	0	0	0	1.0
70	-19.75699997	0	0	0	0	0	1.0
[RightHandRing1]
67	-91.03599548	-0.4390000105	-18.65100098	-1.800672889	-8.619011879	22.19307899	1.0
68	-91.03599548	-0.4390000105	-18.65100098	-2.005123377	-9.247898102	22.28526497	1.0
69	-91.03599548	-0.4390000105	-18.65100098	-2.207627535	-9.866299629	22.37832832	1.0
70	-91.03599548	-0.4390000105	-18.65100098	-2.398703814	-10.44561291	22.46772575	1.0
[RightHandRing2]
67	-31.54000092	0	0	3.237392187	3.772246361	46.11832428	1.0
68	-31.54000092	0	0	3.237381935	3.772246361	46.11830521	1.0
69	-31.54000092	0	0	3.237372398	3.772246599	46.11829376	1.0
70	-31.54000092	0	0	3.237377405	3.772246361	46.11830521	1.0
[RightHandRing3]
67	-29.37700081	0	0	5.740008078e-07	-7.531911024e-07	-2.69121324e-06	1.0
68	-29.37700081	0	0	5.740008078e-07	-7.531911024e-07	-2.69121324e-06	1.0
69	-29.37700081	0	0	5.740008078e-07	-7.531911024e-07	-2.69121324e-06	1.0
70	-29.37700081	0	0	5.740008078e-07	-7.531911024e-07	-2.69121324e-06	1.0
[RightHandRing4]
67	-26.47500038	0	0	0	0	0	1.0
68	-26.47500038	0	0	0	0	0	1.0
69	-26.47500038	0	0	0	0	0	1.0
70	-26.47500038	0	0	0	0	0	1.0
[RightHandMiddle1]
67	-95.32500458	0	0	-1.531792879	-0.3971567452	13.93677044	1.0
68	-95.32500458	0	0	-1.531794071	-0.3971582651	13.93676853	1.0
69	-95.32500458	0	0	-1.531795025	-0.397156179	13.93677139	1.0
70	-95.32500458	0	0	-1.531793833	-0.3971525133	13.93677616	1.0
[RightHandMiddle2]
67	-36.98199844	0	0	-0.9469991326	3.265576601	41.22750473	1.0
68	-36.98199844	0	0	-0.9470070004	3.265583992	41.2274971	1.0
69	-36.98199844	0	0	-0.9470102787	3.265585661	41.22750473	1.0
70	-36.98199844	0	0	-0.9470066428	3.265579462	41.22750854	1.0
[RightHandMiddle3]
67	-29.50900078	0	0	1.856611448e-06	-0.002022909233	1.577868488e-06	1.0
68	-29.50900078	0	0	1.856611448e-06	-0.002022909233	1.577868488e-06	1.0
69	-29.50900078	0	0	1.856611448e-06	-0.002022909233	1.577868488e-06	1.0
70	-29.50900078	0	0	1.856611448e-06	-0.002022909233	1.577868488e-06	1.0
[RightHandMiddle4]
67	-28.3390007	0	0.0009999999311	0	0	0	1.0
68	-28.3390007	0	0.0009999999311	0	0	0	1.0
69	-28.3390007	0	0.0009999999311	0	0	0	1.0
70	-28.3390007	0	0.0009999999311	0	0	0	1.0
[RightHandIndex1]
67	-91.08300018	-5.167999744	22.60099792	-0.2924497426	2.829804897	3.811116457	1.0
68	-91.08300018	-5.167999744	22.60099792	-0.1728993207	3.573379278	3.762063026	1.0
69	-91.08300018	-5.167999744	22.60099792	-0.05334405601	4.320348263	3.714298248	1.0
70	-91.08300018	-5.167999744	22.60099792	0.06189489737	5.043386459	3.669501305	1.0
[RightHandIndex2]
67	-36.76399994	0	0	-1.488834023	2.073339462	43.75289154	1.0
68	-36.76399994	0	0	-1.488845944	2.073330164	43.75289536	1.0
69	-36.76399994	0	0	-1.488855124	2.07332468	43.75289536	1.0
70	-36.76399994	0	0	-1.488852978	2.073324203	43.75288391	1.0
[RightHandIndex3]
67	-28.83100128	0	0	-3.180554719e-15	0	0	1.0
68	-28.83100128	0	0	-3.180554719e-15	0	0	1.0
69	-28.83100128	0	0	-3.180554719e-15	0	0	1.0
70	-28.83100128	0	0	-3.180554719e-15	0	0	1.0
[RightHandIndex4]
67	-23.92700005	0	0	0	0	0	1.0
68	-23.92700005	0	0	0	0	0	1.0
69	-23.92700005	0	0	0	0	0	1.0
70	-23.92700005	0	0	0	0	0	1.0
[RightHandThumb1]
67	-24.64799881	-15.72700024	26.82600021	-2.200888872	4.181877613	-15.91246033	1.0
68	-24.64799881	-15.72700024	26.82600021	-2.076395035	4.29638052	-16.05649567	1.0
69	-24.64799881	-15.72700024	26.82600021	-1.951036215	4.412026405	-16.20172691	1.0
70	-24.64799881	-15.72700024	26.82600021	-1.824837446	4.528811932	-16.34812164	1.0
[RightHandThumb2]
67	-32.29800034	-18.64699936	18.64699936	4.878491879	-6.015096664	4.783176899	1.0
68	-32.29800034	-18.64699936	18.64699936	4.942380428	-6.003097534	4.977407455	1.0
69	-32.29800034	-18.64699936	18.64699936	5.006957531	-5.99119997	5.173382759	1.0
70	-32.29800034	-18.64699936	18.64699936	5.072209358	-5.97942543	5.371061802	1.0
[RightHandThumb3]
67	-26.52600098	-15.31399918	15.31399918	-3.81245151e-08	-0.00121095567	-0.001221005921	1.0
68	-26.52600098	-15.31399918	15.31399918	-3.81245151e-08	-0.00121095567	-0.001221005921	1.0
69	-26.52600098	-15.31399918	15.31399918	-3.81245151e-08	-0.00121095567	-0.001221005921	1.0
70	-26.52600098	-15.31399918	15.31399918	-3.81245151e-08	-0.00121095567	-0.001221005921	1.0
[RightHandThumb4]
67	-19.54599953	-11.28499985	11.28499985	0	0	0	1.0
68	-19.54599953	-11.28499985	11.28499985	0	0	0	1.0
69	-19.54599953	-11.28499985	11.28499985	0	0	0	1.0
70	-19.54599953	-11.28499985	11.28499985	0	0	0	1.0
[LeftUpLeg]
67	82.07800293	-67.51699829	-15.99599934	-102.1924744	10.16833496	-1.594511628	1.0
68	82.07800293	-67.51699829	-15.99599934	-102.3501053	10.09908867	-3.098722458	1.0
69	82.07800293	-67.51699829	-15.99599934	-99.94287872	10.19544029	-3.717673063	1.0
70	82.07800293	-67.51699829	-15.99599934	-93.96015167	10.33024025	-3.29445076	1.0
[LeftLeg]
67	0	-443.7049866	2.845999956	89.10377502	5.58495903	-2.475431442	1.0
68	0	-443.7049866	2.845999956	86.71403503	4.974174023	-4.201407433	1.0
69	0	-443.7049866	2.845999956	82.17253876	4.256317139	-6.557946205	1.0
70	0	-443.7049866	2.845999956	76.82337189	3.836709976	-6.186130047	1.0
[LeftFoot]
67	0	-444.2789917	-29.8219986	-49.42482758	-6.362134933	1.998823166	1.0
68	0	-444.2789917	-29.8219986	-47.45686722	-3.616653919	2.114445925	1.0
69	0	-444.2789917	-29.8219986	-45.24102783	-0.5040057302	2.424681664	1.0
70	0	-444.2789917	-29.8219986	-43.60491562	-0.04781933501	2.632483244	1.0
[LeftToeBase]
67	0	-87.28699493	107.1060028	-2.304824114	2.91803849e-06	4.64392258e-07	1.0
68	0	-87.28699493	107.1060028	-1.280030489	2.948810334e-06	8.120641155e-07	1.0
69	0	-87.28699493	107.1060028	-1.851459384	2.268251137e-06	2.199031996e-06	1.0
70	0	-87.28699493	107.1060028	-3.656653881	2.005824854e-06	2.847627002e-06	1.0
[RightUpLeg]
67	-82.07800293	-67.51699829	-15.99599934	-104.4057465	-22.83547401	3.580960274	1.0
68	-82.07800293	-67.51699829	-15.99599934	-104.4749298	-22.0028286	3.381709337	1.0
69	-82.07800293	-67.51699829	-15.99599934	-100.9807892	-20.36552238	2.093837023	1.0
70	-82.07800293	-67.51699829	-15.99599934	-94.27498627	-18.80862999	0.348092258	1.0
[RightLeg]
67	0	-443.7049866	2.861999989	84.51245117	-1.578579664	13.50341797	1.0
68	0	-443.7049866	2.861999989	81.23947144	-0.9355303049	13.70318985	1.0
69	0	-443.7049866	2.861999989	75.56420135	0.05002902448	12.49603367	1.0
70	0	-443.7049866	2.861999989	69.27596283	1.206629276	10.94192505	1.0
[RightFoot]
67	0	-444.2770081	-29.83799934	-43.59570694	2.920130968	7.736899853	1.0
68	0	-444.2770081	-29.83799934	-40.72091675	2.926990032	8.053143501	1.0
69	0	-444.2770081	-29.83799934	-38.02959442	3.034973621	9.432624817	1.0
70	0	-444.2770081	-29.83799934	-35.2828064	2.966670275	11.22385979	1.0
[RightToeBase]
67	0	-87.28699493	107.1060028	-5.855157852	4.830925263e-06	-2.190663281e-06	1.0
68	0	-87.28699493	107.1060028	-5.169456005	7.120699479e-07	-1.801034045e-06	1.0
69	0	-87.28699493	107.1060028	-3.915557146	5.777594652e-07	1.684424262e-07	1.0
70	0	-87.28699493	107.1060028	-4.045252323	1.791478098e-06	2.926282605e-06	1.0
[EndOfFile]
